<svg width="194" height="59" viewBox="0 0 194 59" fill="none" xmlns="http://www.w3.org/2000/svg">
<rect width="194" height="59" rx="7" fill="#212838"/>
<path d="M77.896 22.208H79.576C80.224 22.208 80.784 22.112 81.256 21.92C81.736 21.72 82.132 21.46 82.444 21.14C82.764 20.812 83 20.444 83.152 20.036C83.304 19.62 83.38 19.192 83.38 18.752C83.38 18.312 83.304 17.888 83.152 17.48C83 17.064 82.764 16.696 82.444 16.376C82.132 16.048 81.736 15.788 81.256 15.596C80.784 15.396 80.224 15.296 79.576 15.296H77.896V22.208ZM77.032 14.504H79.852C80.38 14.504 80.908 14.592 81.436 14.768C81.972 14.944 82.452 15.212 82.876 15.572C83.308 15.924 83.656 16.368 83.92 16.904C84.184 17.432 84.316 18.048 84.316 18.752C84.316 19.464 84.184 20.084 83.92 20.612C83.656 21.14 83.308 21.584 82.876 21.944C82.452 22.296 81.972 22.56 81.436 22.736C80.908 22.912 80.38 23 79.852 23H77.032V14.504ZM90.5705 20.192C90.5705 19.88 90.5185 19.588 90.4145 19.316C90.3185 19.044 90.1785 18.808 89.9945 18.608C89.8105 18.408 89.5865 18.252 89.3225 18.14C89.0665 18.02 88.7745 17.96 88.4465 17.96C88.1185 17.96 87.8225 18.02 87.5585 18.14C87.3025 18.252 87.0825 18.408 86.8985 18.608C86.7225 18.808 86.5825 19.044 86.4785 19.316C86.3825 19.588 86.3345 19.88 86.3345 20.192C86.3345 20.504 86.3825 20.796 86.4785 21.068C86.5825 21.34 86.7225 21.576 86.8985 21.776C87.0825 21.976 87.3025 22.136 87.5585 22.256C87.8225 22.368 88.1185 22.424 88.4465 22.424C88.7745 22.424 89.0665 22.368 89.3225 22.256C89.5865 22.136 89.8105 21.976 89.9945 21.776C90.1785 21.576 90.3185 21.34 90.4145 21.068C90.5185 20.796 90.5705 20.504 90.5705 20.192ZM91.4345 20.192C91.4345 20.616 91.3585 21.008 91.2065 21.368C91.0625 21.728 90.8585 22.04 90.5945 22.304C90.3305 22.568 90.0145 22.776 89.6465 22.928C89.2865 23.072 88.8865 23.144 88.4465 23.144C88.0145 23.144 87.6145 23.072 87.2465 22.928C86.8865 22.776 86.5745 22.568 86.3105 22.304C86.0465 22.04 85.8385 21.728 85.6865 21.368C85.5425 21.008 85.4705 20.616 85.4705 20.192C85.4705 19.768 85.5425 19.376 85.6865 19.016C85.8385 18.656 86.0465 18.344 86.3105 18.08C86.5745 17.816 86.8865 17.612 87.2465 17.468C87.6145 17.316 88.0145 17.24 88.4465 17.24C88.8865 17.24 89.2865 17.316 89.6465 17.468C90.0145 17.612 90.3305 17.816 90.5945 18.08C90.8585 18.344 91.0625 18.656 91.2065 19.016C91.3585 19.376 91.4345 19.768 91.4345 20.192ZM93.1118 17.384L94.4078 21.944H94.4318L95.9318 17.384H96.7478L98.2478 21.944H98.2718L99.5678 17.384H100.504L98.7278 23H97.8398L96.3518 18.392H96.3278L94.8398 23H93.9518L92.1758 17.384H93.1118ZM102.288 17.384C102.304 17.536 102.312 17.688 102.312 17.84C102.32 17.984 102.324 18.132 102.324 18.284H102.348C102.436 18.132 102.548 17.992 102.684 17.864C102.82 17.736 102.972 17.628 103.14 17.54C103.308 17.444 103.484 17.372 103.668 17.324C103.86 17.268 104.048 17.24 104.232 17.24C104.952 17.24 105.484 17.432 105.828 17.816C106.172 18.192 106.344 18.732 106.344 19.436V23H105.552V19.892C105.552 19.268 105.444 18.792 105.228 18.464C105.012 18.128 104.612 17.96 104.028 17.96C103.988 17.96 103.876 17.976 103.692 18.008C103.508 18.04 103.312 18.128 103.104 18.272C102.904 18.416 102.724 18.632 102.564 18.92C102.404 19.208 102.324 19.608 102.324 20.12V23H101.532V18.62C101.532 18.468 101.524 18.276 101.508 18.044C101.5 17.812 101.488 17.592 101.472 17.384H102.288ZM109.172 23H108.38V13.928H109.172V23ZM115.895 20.192C115.895 19.88 115.843 19.588 115.739 19.316C115.643 19.044 115.503 18.808 115.319 18.608C115.135 18.408 114.911 18.252 114.647 18.14C114.391 18.02 114.099 17.96 113.771 17.96C113.443 17.96 113.147 18.02 112.883 18.14C112.627 18.252 112.407 18.408 112.223 18.608C112.047 18.808 111.907 19.044 111.803 19.316C111.707 19.588 111.659 19.88 111.659 20.192C111.659 20.504 111.707 20.796 111.803 21.068C111.907 21.34 112.047 21.576 112.223 21.776C112.407 21.976 112.627 22.136 112.883 22.256C113.147 22.368 113.443 22.424 113.771 22.424C114.099 22.424 114.391 22.368 114.647 22.256C114.911 22.136 115.135 21.976 115.319 21.776C115.503 21.576 115.643 21.34 115.739 21.068C115.843 20.796 115.895 20.504 115.895 20.192ZM116.759 20.192C116.759 20.616 116.683 21.008 116.531 21.368C116.387 21.728 116.183 22.04 115.919 22.304C115.655 22.568 115.339 22.776 114.971 22.928C114.611 23.072 114.211 23.144 113.771 23.144C113.339 23.144 112.939 23.072 112.571 22.928C112.211 22.776 111.899 22.568 111.635 22.304C111.371 22.04 111.163 21.728 111.011 21.368C110.867 21.008 110.795 20.616 110.795 20.192C110.795 19.768 110.867 19.376 111.011 19.016C111.163 18.656 111.371 18.344 111.635 18.08C111.899 17.816 112.211 17.612 112.571 17.468C112.939 17.316 113.339 17.24 113.771 17.24C114.211 17.24 114.611 17.316 114.971 17.468C115.339 17.612 115.655 17.816 115.919 18.08C116.183 18.344 116.387 18.656 116.531 19.016C116.683 19.376 116.759 19.768 116.759 20.192ZM121.388 20.204C121.188 20.204 120.936 20.216 120.632 20.24C120.336 20.256 120.048 20.304 119.768 20.384C119.496 20.456 119.26 20.572 119.06 20.732C118.868 20.892 118.772 21.112 118.772 21.392C118.772 21.576 118.808 21.736 118.88 21.872C118.96 22 119.064 22.108 119.192 22.196C119.32 22.276 119.46 22.336 119.612 22.376C119.772 22.408 119.932 22.424 120.092 22.424C120.38 22.424 120.628 22.376 120.836 22.28C121.052 22.184 121.232 22.056 121.376 21.896C121.52 21.728 121.624 21.536 121.688 21.32C121.76 21.096 121.796 20.86 121.796 20.612V20.204H121.388ZM121.796 19.556V19.412C121.796 18.444 121.316 17.96 120.356 17.96C119.7 17.96 119.128 18.18 118.64 18.62L118.16 18.056C118.688 17.512 119.48 17.24 120.536 17.24C120.808 17.24 121.068 17.28 121.316 17.36C121.572 17.44 121.792 17.564 121.976 17.732C122.16 17.892 122.308 18.096 122.42 18.344C122.532 18.592 122.588 18.888 122.588 19.232V21.74C122.588 21.956 122.596 22.184 122.612 22.424C122.636 22.656 122.66 22.848 122.684 23H121.916C121.892 22.864 121.872 22.716 121.856 22.556C121.848 22.396 121.844 22.24 121.844 22.088H121.82C121.588 22.464 121.312 22.736 120.992 22.904C120.68 23.064 120.296 23.144 119.84 23.144C119.592 23.144 119.352 23.108 119.12 23.036C118.888 22.972 118.68 22.872 118.496 22.736C118.32 22.592 118.176 22.42 118.064 22.22C117.96 22.012 117.908 21.772 117.908 21.5C117.908 21.044 118.024 20.688 118.256 20.432C118.496 20.168 118.792 19.972 119.144 19.844C119.504 19.716 119.884 19.636 120.284 19.604C120.692 19.572 121.064 19.556 121.4 19.556H121.796ZM124.899 20.192C124.899 20.504 124.947 20.796 125.043 21.068C125.147 21.34 125.291 21.576 125.475 21.776C125.659 21.976 125.879 22.136 126.135 22.256C126.399 22.368 126.695 22.424 127.023 22.424C127.343 22.424 127.639 22.368 127.911 22.256C128.191 22.136 128.431 21.976 128.631 21.776C128.831 21.576 128.987 21.34 129.099 21.068C129.211 20.796 129.267 20.504 129.267 20.192C129.267 19.88 129.211 19.588 129.099 19.316C128.987 19.044 128.831 18.808 128.631 18.608C128.431 18.408 128.191 18.252 127.911 18.14C127.639 18.02 127.343 17.96 127.023 17.96C126.695 17.96 126.399 18.02 126.135 18.14C125.879 18.252 125.659 18.408 125.475 18.608C125.291 18.808 125.147 19.044 125.043 19.316C124.947 19.588 124.899 19.88 124.899 20.192ZM130.023 23H129.231V22.064H129.207C129.079 22.256 128.927 22.42 128.751 22.556C128.575 22.692 128.391 22.804 128.199 22.892C128.007 22.98 127.807 23.044 127.599 23.084C127.399 23.124 127.207 23.144 127.023 23.144C126.583 23.144 126.179 23.072 125.811 22.928C125.451 22.776 125.139 22.568 124.875 22.304C124.611 22.04 124.403 21.728 124.251 21.368C124.107 21.008 124.035 20.616 124.035 20.192C124.035 19.768 124.107 19.376 124.251 19.016C124.403 18.656 124.611 18.344 124.875 18.08C125.139 17.816 125.451 17.612 125.811 17.468C126.179 17.316 126.583 17.24 127.023 17.24C127.207 17.24 127.399 17.26 127.599 17.3C127.807 17.34 128.007 17.404 128.199 17.492C128.391 17.58 128.575 17.692 128.751 17.828C128.927 17.964 129.079 18.128 129.207 18.32H129.231V13.928H130.023V23ZM139.906 20.192C139.906 19.88 139.854 19.588 139.75 19.316C139.654 19.044 139.514 18.808 139.33 18.608C139.146 18.408 138.922 18.252 138.658 18.14C138.402 18.02 138.11 17.96 137.782 17.96C137.454 17.96 137.158 18.02 136.894 18.14C136.638 18.252 136.418 18.408 136.234 18.608C136.058 18.808 135.918 19.044 135.814 19.316C135.718 19.588 135.67 19.88 135.67 20.192C135.67 20.504 135.718 20.796 135.814 21.068C135.918 21.34 136.058 21.576 136.234 21.776C136.418 21.976 136.638 22.136 136.894 22.256C137.158 22.368 137.454 22.424 137.782 22.424C138.11 22.424 138.402 22.368 138.658 22.256C138.922 22.136 139.146 21.976 139.33 21.776C139.514 21.576 139.654 21.34 139.75 21.068C139.854 20.796 139.906 20.504 139.906 20.192ZM140.77 20.192C140.77 20.616 140.694 21.008 140.542 21.368C140.398 21.728 140.194 22.04 139.93 22.304C139.666 22.568 139.35 22.776 138.982 22.928C138.622 23.072 138.222 23.144 137.782 23.144C137.35 23.144 136.95 23.072 136.582 22.928C136.222 22.776 135.91 22.568 135.646 22.304C135.382 22.04 135.174 21.728 135.022 21.368C134.878 21.008 134.806 20.616 134.806 20.192C134.806 19.768 134.878 19.376 135.022 19.016C135.174 18.656 135.382 18.344 135.646 18.08C135.91 17.816 136.222 17.612 136.582 17.468C136.95 17.316 137.35 17.24 137.782 17.24C138.222 17.24 138.622 17.316 138.982 17.468C139.35 17.612 139.666 17.816 139.93 18.08C140.194 18.344 140.398 18.656 140.542 19.016C140.694 19.376 140.77 19.768 140.77 20.192ZM142.964 17.384C142.98 17.536 142.988 17.688 142.988 17.84C142.996 17.984 143 18.132 143 18.284H143.024C143.112 18.132 143.224 17.992 143.36 17.864C143.496 17.736 143.648 17.628 143.816 17.54C143.984 17.444 144.16 17.372 144.344 17.324C144.536 17.268 144.724 17.24 144.908 17.24C145.628 17.24 146.16 17.432 146.504 17.816C146.848 18.192 147.02 18.732 147.02 19.436V23H146.228V19.892C146.228 19.268 146.12 18.792 145.904 18.464C145.688 18.128 145.288 17.96 144.704 17.96C144.664 17.96 144.552 17.976 144.368 18.008C144.184 18.04 143.988 18.128 143.78 18.272C143.58 18.416 143.4 18.632 143.24 18.92C143.08 19.208 143 19.608 143 20.12V23H142.208V18.62C142.208 18.468 142.2 18.276 142.184 18.044C142.176 17.812 142.164 17.592 142.148 17.384H142.964ZM155.12 18.104H153.5V21.416C153.5 21.624 153.52 21.796 153.56 21.932C153.6 22.06 153.656 22.16 153.728 22.232C153.8 22.304 153.884 22.356 153.98 22.388C154.084 22.412 154.196 22.424 154.316 22.424C154.452 22.424 154.592 22.404 154.736 22.364C154.88 22.324 155.012 22.272 155.132 22.208L155.168 22.94C154.872 23.076 154.516 23.144 154.1 23.144C153.948 23.144 153.788 23.124 153.62 23.084C153.46 23.044 153.312 22.968 153.176 22.856C153.04 22.744 152.928 22.592 152.84 22.4C152.752 22.208 152.708 21.956 152.708 21.644V18.104H151.52V17.384H152.708V15.8H153.5V17.384H155.12V18.104ZM156.2 13.928H156.992V18.284H157.016C157.104 18.132 157.216 17.992 157.352 17.864C157.488 17.736 157.64 17.628 157.808 17.54C157.976 17.444 158.152 17.372 158.336 17.324C158.528 17.268 158.716 17.24 158.9 17.24C159.62 17.24 160.152 17.432 160.496 17.816C160.84 18.192 161.012 18.732 161.012 19.436V23H160.22V19.892C160.22 19.268 160.112 18.792 159.896 18.464C159.68 18.128 159.28 17.96 158.696 17.96C158.656 17.96 158.544 17.976 158.36 18.008C158.176 18.04 157.98 18.128 157.772 18.272C157.572 18.416 157.392 18.632 157.232 18.92C157.072 19.208 156.992 19.608 156.992 20.12V23H156.2V13.928ZM167.236 19.76C167.236 19.224 167.076 18.792 166.756 18.464C166.436 18.128 165.988 17.96 165.412 17.96C165.156 17.96 164.908 18.012 164.668 18.116C164.428 18.212 164.216 18.344 164.032 18.512C163.856 18.68 163.712 18.872 163.6 19.088C163.496 19.304 163.444 19.528 163.444 19.76H167.236ZM163.42 20.408C163.444 20.688 163.512 20.952 163.624 21.2C163.736 21.448 163.884 21.664 164.068 21.848C164.252 22.024 164.464 22.164 164.704 22.268C164.944 22.372 165.204 22.424 165.484 22.424C165.908 22.424 166.272 22.328 166.576 22.136C166.888 21.936 167.124 21.708 167.284 21.452L167.896 21.956C167.56 22.38 167.188 22.684 166.78 22.868C166.38 23.052 165.948 23.144 165.484 23.144C165.068 23.144 164.68 23.072 164.32 22.928C163.968 22.776 163.664 22.568 163.408 22.304C163.152 22.04 162.948 21.728 162.796 21.368C162.652 21.008 162.58 20.616 162.58 20.192C162.58 19.768 162.652 19.376 162.796 19.016C162.94 18.656 163.14 18.344 163.396 18.08C163.652 17.816 163.952 17.612 164.296 17.468C164.64 17.316 165.012 17.24 165.412 17.24C165.836 17.24 166.216 17.316 166.552 17.468C166.888 17.62 167.168 17.824 167.392 18.08C167.624 18.328 167.8 18.624 167.92 18.968C168.04 19.304 168.1 19.664 168.1 20.048V20.408H163.42Z" fill="white"/>
<path d="M81.544 31.256H83.506L88.996 44H86.404L85.216 41.084H79.69L78.538 44H76L81.544 31.256ZM84.424 39.14L82.462 33.956L80.464 39.14H84.424ZM90.2142 35.36H92.2662V36.656H92.3022C92.6142 36.128 93.0342 35.744 93.5622 35.504C94.0902 35.264 94.6602 35.144 95.2722 35.144C95.9322 35.144 96.5262 35.264 97.0542 35.504C97.5822 35.732 98.0322 36.05 98.4042 36.458C98.7762 36.866 99.0582 37.346 99.2502 37.898C99.4422 38.45 99.5382 39.044 99.5382 39.68C99.5382 40.316 99.4362 40.91 99.2322 41.462C99.0282 42.014 98.7402 42.494 98.3682 42.902C98.0082 43.31 97.5702 43.634 97.0542 43.874C96.5382 44.102 95.9742 44.216 95.3622 44.216C94.9542 44.216 94.5942 44.174 94.2822 44.09C93.9702 44.006 93.6942 43.898 93.4542 43.766C93.2142 43.634 93.0102 43.496 92.8422 43.352C92.6742 43.196 92.5362 43.046 92.4282 42.902H92.3742V48.104H90.2142V35.36ZM97.3782 39.68C97.3782 39.344 97.3182 39.02 97.1982 38.708C97.0902 38.396 96.9222 38.12 96.6942 37.88C96.4782 37.64 96.2142 37.448 95.9022 37.304C95.5902 37.16 95.2362 37.088 94.8402 37.088C94.4442 37.088 94.0902 37.16 93.7782 37.304C93.4662 37.448 93.1962 37.64 92.9682 37.88C92.7522 38.12 92.5842 38.396 92.4642 38.708C92.3562 39.02 92.3022 39.344 92.3022 39.68C92.3022 40.016 92.3562 40.34 92.4642 40.652C92.5842 40.964 92.7522 41.24 92.9682 41.48C93.1962 41.72 93.4662 41.912 93.7782 42.056C94.0902 42.2 94.4442 42.272 94.8402 42.272C95.2362 42.272 95.5902 42.2 95.9022 42.056C96.2142 41.912 96.4782 41.72 96.6942 41.48C96.9222 41.24 97.0902 40.964 97.1982 40.652C97.3182 40.34 97.3782 40.016 97.3782 39.68ZM101.552 35.36H103.604V36.656H103.64C103.952 36.128 104.372 35.744 104.9 35.504C105.428 35.264 105.998 35.144 106.61 35.144C107.27 35.144 107.864 35.264 108.392 35.504C108.92 35.732 109.37 36.05 109.742 36.458C110.114 36.866 110.396 37.346 110.588 37.898C110.78 38.45 110.876 39.044 110.876 39.68C110.876 40.316 110.774 40.91 110.57 41.462C110.366 42.014 110.078 42.494 109.706 42.902C109.346 43.31 108.908 43.634 108.392 43.874C107.876 44.102 107.312 44.216 106.7 44.216C106.292 44.216 105.932 44.174 105.62 44.09C105.308 44.006 105.032 43.898 104.792 43.766C104.552 43.634 104.348 43.496 104.18 43.352C104.012 43.196 103.874 43.046 103.766 42.902H103.712V48.104H101.552V35.36ZM108.716 39.68C108.716 39.344 108.656 39.02 108.536 38.708C108.428 38.396 108.26 38.12 108.032 37.88C107.816 37.64 107.552 37.448 107.24 37.304C106.928 37.16 106.574 37.088 106.178 37.088C105.782 37.088 105.428 37.16 105.116 37.304C104.804 37.448 104.534 37.64 104.306 37.88C104.09 38.12 103.922 38.396 103.802 38.708C103.694 39.02 103.64 39.344 103.64 39.68C103.64 40.016 103.694 40.34 103.802 40.652C103.922 40.964 104.09 41.24 104.306 41.48C104.534 41.72 104.804 41.912 105.116 42.056C105.428 42.2 105.782 42.272 106.178 42.272C106.574 42.272 106.928 42.2 107.24 42.056C107.552 41.912 107.816 41.72 108.032 41.48C108.26 41.24 108.428 40.964 108.536 40.652C108.656 40.34 108.716 40.016 108.716 39.68ZM124.66 33.992C124.42 33.644 124.096 33.392 123.688 33.236C123.292 33.068 122.872 32.984 122.428 32.984C122.164 32.984 121.906 33.014 121.654 33.074C121.414 33.134 121.192 33.23 120.988 33.362C120.796 33.494 120.64 33.668 120.52 33.884C120.4 34.088 120.34 34.334 120.34 34.622C120.34 35.054 120.49 35.384 120.79 35.612C121.09 35.84 121.462 36.038 121.906 36.206C122.35 36.374 122.836 36.536 123.364 36.692C123.892 36.848 124.378 37.064 124.822 37.34C125.266 37.616 125.638 37.982 125.938 38.438C126.238 38.894 126.388 39.5 126.388 40.256C126.388 40.94 126.262 41.54 126.01 42.056C125.758 42.56 125.416 42.98 124.984 43.316C124.564 43.652 124.072 43.904 123.508 44.072C122.944 44.24 122.35 44.324 121.726 44.324C120.934 44.324 120.172 44.192 119.44 43.928C118.708 43.664 118.078 43.22 117.55 42.596L119.26 40.94C119.536 41.36 119.896 41.69 120.34 41.93C120.796 42.158 121.276 42.272 121.78 42.272C122.044 42.272 122.308 42.236 122.572 42.164C122.836 42.092 123.076 41.984 123.292 41.84C123.508 41.696 123.682 41.516 123.814 41.3C123.946 41.072 124.012 40.814 124.012 40.526C124.012 40.058 123.862 39.698 123.562 39.446C123.262 39.194 122.89 38.984 122.446 38.816C122.002 38.636 121.516 38.468 120.988 38.312C120.46 38.156 119.974 37.946 119.53 37.682C119.086 37.406 118.714 37.046 118.414 36.602C118.114 36.146 117.964 35.54 117.964 34.784C117.964 34.124 118.096 33.554 118.36 33.074C118.636 32.594 118.99 32.198 119.422 31.886C119.866 31.562 120.37 31.322 120.934 31.166C121.498 31.01 122.074 30.932 122.662 30.932C123.334 30.932 123.982 31.034 124.606 31.238C125.242 31.442 125.812 31.778 126.316 32.246L124.66 33.992ZM127.544 37.196V35.36H129.326V32.858H131.486V35.36H133.862V37.196H131.486V40.976C131.486 41.408 131.564 41.75 131.72 42.002C131.888 42.254 132.212 42.38 132.692 42.38C132.884 42.38 133.094 42.362 133.322 42.326C133.55 42.278 133.73 42.206 133.862 42.11V43.928C133.634 44.036 133.352 44.108 133.016 44.144C132.692 44.192 132.404 44.216 132.152 44.216C131.576 44.216 131.102 44.15 130.73 44.018C130.37 43.898 130.082 43.712 129.866 43.46C129.662 43.196 129.518 42.872 129.434 42.488C129.362 42.104 129.326 41.66 129.326 41.156V37.196H127.544ZM135.116 39.68C135.116 38.996 135.236 38.378 135.476 37.826C135.728 37.262 136.064 36.782 136.484 36.386C136.904 35.99 137.402 35.684 137.978 35.468C138.554 35.252 139.166 35.144 139.814 35.144C140.462 35.144 141.074 35.252 141.65 35.468C142.226 35.684 142.724 35.99 143.144 36.386C143.564 36.782 143.894 37.262 144.134 37.826C144.386 38.378 144.512 38.996 144.512 39.68C144.512 40.364 144.386 40.988 144.134 41.552C143.894 42.104 143.564 42.578 143.144 42.974C142.724 43.37 142.226 43.676 141.65 43.892C141.074 44.108 140.462 44.216 139.814 44.216C139.166 44.216 138.554 44.108 137.978 43.892C137.402 43.676 136.904 43.37 136.484 42.974C136.064 42.578 135.728 42.104 135.476 41.552C135.236 40.988 135.116 40.364 135.116 39.68ZM137.276 39.68C137.276 40.016 137.33 40.34 137.438 40.652C137.558 40.964 137.726 41.24 137.942 41.48C138.17 41.72 138.44 41.912 138.752 42.056C139.064 42.2 139.418 42.272 139.814 42.272C140.21 42.272 140.564 42.2 140.876 42.056C141.188 41.912 141.452 41.72 141.668 41.48C141.896 41.24 142.064 40.964 142.172 40.652C142.292 40.34 142.352 40.016 142.352 39.68C142.352 39.344 142.292 39.02 142.172 38.708C142.064 38.396 141.896 38.12 141.668 37.88C141.452 37.64 141.188 37.448 140.876 37.304C140.564 37.16 140.21 37.088 139.814 37.088C139.418 37.088 139.064 37.16 138.752 37.304C138.44 37.448 138.17 37.64 137.942 37.88C137.726 38.12 137.558 38.396 137.438 38.708C137.33 39.02 137.276 39.344 137.276 39.68ZM146.535 35.36H148.695V36.728H148.731C148.971 36.224 149.313 35.834 149.757 35.558C150.201 35.282 150.711 35.144 151.287 35.144C151.419 35.144 151.545 35.156 151.665 35.18C151.797 35.204 151.929 35.234 152.061 35.27V37.358C151.881 37.31 151.701 37.274 151.521 37.25C151.353 37.214 151.185 37.196 151.017 37.196C150.513 37.196 150.105 37.292 149.793 37.484C149.493 37.664 149.259 37.874 149.091 38.114C148.935 38.354 148.827 38.594 148.767 38.834C148.719 39.074 148.695 39.254 148.695 39.374V44H146.535V35.36ZM154.942 40.436C155.014 41.084 155.266 41.588 155.698 41.948C156.13 42.308 156.652 42.488 157.264 42.488C157.804 42.488 158.254 42.38 158.614 42.164C158.986 41.936 159.31 41.654 159.586 41.318L161.134 42.488C160.63 43.112 160.066 43.556 159.442 43.82C158.818 44.084 158.164 44.216 157.48 44.216C156.832 44.216 156.22 44.108 155.644 43.892C155.068 43.676 154.57 43.37 154.15 42.974C153.73 42.578 153.394 42.104 153.142 41.552C152.902 40.988 152.782 40.364 152.782 39.68C152.782 38.996 152.902 38.378 153.142 37.826C153.394 37.262 153.73 36.782 154.15 36.386C154.57 35.99 155.068 35.684 155.644 35.468C156.22 35.252 156.832 35.144 157.48 35.144C158.08 35.144 158.626 35.252 159.118 35.468C159.622 35.672 160.048 35.972 160.396 36.368C160.756 36.764 161.032 37.256 161.224 37.844C161.428 38.42 161.53 39.086 161.53 39.842V40.436H154.942ZM159.37 38.816C159.358 38.18 159.16 37.682 158.776 37.322C158.392 36.95 157.858 36.764 157.174 36.764C156.526 36.764 156.01 36.95 155.626 37.322C155.254 37.694 155.026 38.192 154.942 38.816H159.37Z" fill="white"/>
<g clip-path="url(#clip0_5_213)">
<path d="M44.1233 10C42.0975 10.1401 39.7296 11.4369 38.3497 13.1255C37.091 14.6573 36.0555 16.9326 36.4592 19.1437C38.6727 19.2126 40.9598 17.885 42.2851 16.1678C43.5248 14.5695 44.4629 12.3085 44.1233 10Z" fill="white"/>
<path d="M52.1294 22.7489C50.1843 20.3098 47.4507 18.8943 44.8691 18.8943C41.461 18.8943 40.0194 20.5259 37.6515 20.5259C35.21 20.5259 33.3552 18.8991 30.4078 18.8991C27.5127 18.8991 24.43 20.6684 22.4753 23.6942C19.7275 27.9549 20.1977 35.9657 24.6508 42.7891C26.2444 45.2305 28.3724 47.976 31.1559 47.9998C33.633 48.0235 34.3313 46.4109 37.6871 46.3943C41.043 46.3753 41.6795 48.0212 44.1518 47.995C46.9377 47.9737 49.1821 44.9313 50.7757 42.4898C51.918 40.7395 52.3432 39.8583 53.229 37.8823C46.7857 35.429 45.7526 26.2663 52.1294 22.7489Z" fill="white"/>
</g>
<defs>
<clipPath id="clip0_5_213">
<rect width="38" height="38" fill="white" transform="translate(18 10)"/>
</clipPath>
</defs>
</svg>
