<svg width="194" height="59" viewBox="0 0 194 59" fill="none" xmlns="http://www.w3.org/2000/svg">
<rect width="194" height="59" rx="7" fill="#212838"/>
<path d="M26.2941 10.6077C24.8074 9.78604 23.0619 9.80503 21.5847 10.6196L38.8975 26.5906L44.7135 20.7745L26.2941 10.6077Z" fill="white"/>
<path d="M19.8534 12.2535C19.4307 12.9446 19.1885 13.7355 19.1885 14.5738V43.4189C19.1885 44.2311 19.4093 45.0053 19.8083 45.6822L37.2185 28.272L19.8534 12.2535Z" fill="white"/>
<path d="M52.4247 25.0303L46.877 21.9691L40.6429 28.2007L48.2829 35.247L52.427 32.96C53.9184 32.1335 54.8114 30.6516 54.8114 28.994C54.809 27.3363 53.9184 25.8544 52.4247 25.0303Z" fill="white"/>
<path d="M38.964 29.8822L21.5063 47.3398C22.2639 47.772 23.0951 48 23.9311 48C24.7385 48 25.5507 47.7958 26.2941 47.3849L46.0933 36.4582L38.964 29.8822Z" fill="white"/>
<path d="M83.428 16.064C83.14 15.76 82.796 15.52 82.396 15.344C81.996 15.168 81.532 15.08 81.004 15.08C80.46 15.08 79.972 15.18 79.54 15.38C79.108 15.58 78.74 15.848 78.436 16.184C78.14 16.52 77.912 16.912 77.752 17.36C77.592 17.8 77.512 18.264 77.512 18.752C77.512 19.24 77.592 19.708 77.752 20.156C77.912 20.596 78.14 20.984 78.436 21.32C78.74 21.656 79.108 21.924 79.54 22.124C79.972 22.324 80.46 22.424 81.004 22.424C81.444 22.424 81.864 22.372 82.264 22.268C82.672 22.156 83.036 22.008 83.356 21.824V18.98H81.328V18.188H84.22V22.352C83.74 22.632 83.212 22.848 82.636 23C82.068 23.144 81.524 23.216 81.004 23.216C80.372 23.216 79.784 23.104 79.24 22.88C78.704 22.656 78.236 22.348 77.836 21.956C77.444 21.556 77.136 21.084 76.912 20.54C76.688 19.996 76.576 19.4 76.576 18.752C76.576 18.104 76.688 17.508 76.912 16.964C77.136 16.42 77.444 15.952 77.836 15.56C78.236 15.16 78.704 14.848 79.24 14.624C79.784 14.4 80.372 14.288 81.004 14.288C81.684 14.288 82.268 14.384 82.756 14.576C83.252 14.76 83.692 15.044 84.076 15.428L83.428 16.064ZM90.5718 19.76C90.5718 19.224 90.4118 18.792 90.0918 18.464C89.7718 18.128 89.3238 17.96 88.7478 17.96C88.4918 17.96 88.2438 18.012 88.0038 18.116C87.7638 18.212 87.5518 18.344 87.3678 18.512C87.1918 18.68 87.0478 18.872 86.9358 19.088C86.8318 19.304 86.7798 19.528 86.7798 19.76H90.5718ZM86.7558 20.408C86.7798 20.688 86.8478 20.952 86.9598 21.2C87.0718 21.448 87.2198 21.664 87.4038 21.848C87.5878 22.024 87.7998 22.164 88.0398 22.268C88.2798 22.372 88.5398 22.424 88.8198 22.424C89.2438 22.424 89.6078 22.328 89.9118 22.136C90.2238 21.936 90.4598 21.708 90.6198 21.452L91.2318 21.956C90.8958 22.38 90.5238 22.684 90.1158 22.868C89.7158 23.052 89.2838 23.144 88.8198 23.144C88.4038 23.144 88.0158 23.072 87.6558 22.928C87.3038 22.776 86.9998 22.568 86.7438 22.304C86.4878 22.04 86.2838 21.728 86.1318 21.368C85.9878 21.008 85.9158 20.616 85.9158 20.192C85.9158 19.768 85.9878 19.376 86.1318 19.016C86.2758 18.656 86.4758 18.344 86.7318 18.08C86.9878 17.816 87.2878 17.612 87.6318 17.468C87.9758 17.316 88.3478 17.24 88.7478 17.24C89.1718 17.24 89.5518 17.316 89.8878 17.468C90.2238 17.62 90.5038 17.824 90.7278 18.08C90.9598 18.328 91.1358 18.624 91.2558 18.968C91.3758 19.304 91.4358 19.664 91.4358 20.048V20.408H86.7558ZM95.7758 18.104H94.1558V21.416C94.1558 21.624 94.1758 21.796 94.2158 21.932C94.2558 22.06 94.3118 22.16 94.3838 22.232C94.4558 22.304 94.5398 22.356 94.6358 22.388C94.7398 22.412 94.8518 22.424 94.9718 22.424C95.1078 22.424 95.2478 22.404 95.3918 22.364C95.5358 22.324 95.6678 22.272 95.7878 22.208L95.8238 22.94C95.5278 23.076 95.1718 23.144 94.7558 23.144C94.6038 23.144 94.4438 23.124 94.2758 23.084C94.1158 23.044 93.9678 22.968 93.8318 22.856C93.6958 22.744 93.5838 22.592 93.4958 22.4C93.4078 22.208 93.3638 21.956 93.3638 21.644V18.104H92.1758V17.384H93.3638V15.8H94.1558V17.384H95.7758V18.104ZM101.348 15.224C101.348 15.392 101.288 15.532 101.168 15.644C101.048 15.748 100.916 15.8 100.772 15.8C100.628 15.8 100.496 15.748 100.376 15.644C100.256 15.532 100.196 15.392 100.196 15.224C100.196 15.056 100.256 14.92 100.376 14.816C100.496 14.704 100.628 14.648 100.772 14.648C100.916 14.648 101.048 14.704 101.168 14.816C101.288 14.92 101.348 15.056 101.348 15.224ZM101.168 23H100.376V17.384H101.168V23ZM105.983 18.104H104.363V21.416C104.363 21.624 104.383 21.796 104.423 21.932C104.463 22.06 104.519 22.16 104.591 22.232C104.663 22.304 104.747 22.356 104.843 22.388C104.947 22.412 105.059 22.424 105.179 22.424C105.315 22.424 105.455 22.404 105.599 22.364C105.743 22.324 105.875 22.272 105.995 22.208L106.031 22.94C105.735 23.076 105.379 23.144 104.963 23.144C104.811 23.144 104.651 23.124 104.483 23.084C104.323 23.044 104.175 22.968 104.039 22.856C103.903 22.744 103.791 22.592 103.703 22.4C103.615 22.208 103.571 21.956 103.571 21.644V18.104H102.383V17.384H103.571V15.8H104.363V17.384H105.983V18.104ZM115.215 20.192C115.215 19.88 115.163 19.588 115.059 19.316C114.963 19.044 114.823 18.808 114.639 18.608C114.455 18.408 114.231 18.252 113.967 18.14C113.711 18.02 113.419 17.96 113.091 17.96C112.763 17.96 112.467 18.02 112.203 18.14C111.947 18.252 111.727 18.408 111.543 18.608C111.367 18.808 111.227 19.044 111.123 19.316C111.027 19.588 110.979 19.88 110.979 20.192C110.979 20.504 111.027 20.796 111.123 21.068C111.227 21.34 111.367 21.576 111.543 21.776C111.727 21.976 111.947 22.136 112.203 22.256C112.467 22.368 112.763 22.424 113.091 22.424C113.419 22.424 113.711 22.368 113.967 22.256C114.231 22.136 114.455 21.976 114.639 21.776C114.823 21.576 114.963 21.34 115.059 21.068C115.163 20.796 115.215 20.504 115.215 20.192ZM116.079 20.192C116.079 20.616 116.003 21.008 115.851 21.368C115.707 21.728 115.503 22.04 115.239 22.304C114.975 22.568 114.659 22.776 114.291 22.928C113.931 23.072 113.531 23.144 113.091 23.144C112.659 23.144 112.259 23.072 111.891 22.928C111.531 22.776 111.219 22.568 110.955 22.304C110.691 22.04 110.483 21.728 110.331 21.368C110.187 21.008 110.115 20.616 110.115 20.192C110.115 19.768 110.187 19.376 110.331 19.016C110.483 18.656 110.691 18.344 110.955 18.08C111.219 17.816 111.531 17.612 111.891 17.468C112.259 17.316 112.659 17.24 113.091 17.24C113.531 17.24 113.931 17.316 114.291 17.468C114.659 17.612 114.975 17.816 115.239 18.08C115.503 18.344 115.707 18.656 115.851 19.016C116.003 19.376 116.079 19.768 116.079 20.192ZM118.272 17.384C118.288 17.536 118.296 17.688 118.296 17.84C118.304 17.984 118.308 18.132 118.308 18.284H118.332C118.42 18.132 118.532 17.992 118.668 17.864C118.804 17.736 118.956 17.628 119.124 17.54C119.292 17.444 119.468 17.372 119.652 17.324C119.844 17.268 120.032 17.24 120.216 17.24C120.936 17.24 121.468 17.432 121.812 17.816C122.156 18.192 122.328 18.732 122.328 19.436V23H121.536V19.892C121.536 19.268 121.428 18.792 121.212 18.464C120.996 18.128 120.596 17.96 120.012 17.96C119.972 17.96 119.86 17.976 119.676 18.008C119.492 18.04 119.296 18.128 119.088 18.272C118.888 18.416 118.708 18.632 118.548 18.92C118.388 19.208 118.308 19.608 118.308 20.12V23H117.516V18.62C117.516 18.468 117.508 18.276 117.492 18.044C117.484 17.812 117.472 17.592 117.456 17.384H118.272Z" fill="white"/>
<path d="M88.744 43.064C87.172 43.904 85.414 44.324 83.47 44.324C82.486 44.324 81.58 44.168 80.752 43.856C79.936 43.532 79.228 43.082 78.628 42.506C78.04 41.918 77.578 41.216 77.242 40.4C76.906 39.584 76.738 38.678 76.738 37.682C76.738 36.662 76.906 35.738 77.242 34.91C77.578 34.07 78.04 33.356 78.628 32.768C79.228 32.18 79.936 31.73 80.752 31.418C81.58 31.094 82.486 30.932 83.47 30.932C84.442 30.932 85.354 31.052 86.206 31.292C87.058 31.52 87.82 31.934 88.492 32.534L86.818 34.226C86.41 33.83 85.912 33.524 85.324 33.308C84.748 33.092 84.136 32.984 83.488 32.984C82.828 32.984 82.228 33.104 81.688 33.344C81.16 33.572 80.704 33.896 80.32 34.316C79.936 34.724 79.636 35.204 79.42 35.756C79.216 36.308 79.114 36.902 79.114 37.538C79.114 38.222 79.216 38.852 79.42 39.428C79.636 40.004 79.936 40.502 80.32 40.922C80.704 41.342 81.16 41.672 81.688 41.912C82.228 42.152 82.828 42.272 83.488 42.272C84.064 42.272 84.604 42.218 85.108 42.11C85.624 42.002 86.08 41.834 86.476 41.606V38.6H83.866V36.548H88.744V43.064ZM90.8018 39.68C90.8018 38.996 90.9218 38.378 91.1618 37.826C91.4138 37.262 91.7498 36.782 92.1698 36.386C92.5898 35.99 93.0878 35.684 93.6638 35.468C94.2398 35.252 94.8518 35.144 95.4998 35.144C96.1478 35.144 96.7598 35.252 97.3358 35.468C97.9118 35.684 98.4098 35.99 98.8298 36.386C99.2498 36.782 99.5798 37.262 99.8198 37.826C100.072 38.378 100.198 38.996 100.198 39.68C100.198 40.364 100.072 40.988 99.8198 41.552C99.5798 42.104 99.2498 42.578 98.8298 42.974C98.4098 43.37 97.9118 43.676 97.3358 43.892C96.7598 44.108 96.1478 44.216 95.4998 44.216C94.8518 44.216 94.2398 44.108 93.6638 43.892C93.0878 43.676 92.5898 43.37 92.1698 42.974C91.7498 42.578 91.4138 42.104 91.1618 41.552C90.9218 40.988 90.8018 40.364 90.8018 39.68ZM92.9618 39.68C92.9618 40.016 93.0158 40.34 93.1238 40.652C93.2438 40.964 93.4118 41.24 93.6278 41.48C93.8558 41.72 94.1258 41.912 94.4378 42.056C94.7498 42.2 95.1038 42.272 95.4998 42.272C95.8958 42.272 96.2498 42.2 96.5618 42.056C96.8738 41.912 97.1378 41.72 97.3538 41.48C97.5818 41.24 97.7498 40.964 97.8578 40.652C97.9778 40.34 98.0378 40.016 98.0378 39.68C98.0378 39.344 97.9778 39.02 97.8578 38.708C97.7498 38.396 97.5818 38.12 97.3538 37.88C97.1378 37.64 96.8738 37.448 96.5618 37.304C96.2498 37.16 95.8958 37.088 95.4998 37.088C95.1038 37.088 94.7498 37.16 94.4378 37.304C94.1258 37.448 93.8558 37.64 93.6278 37.88C93.4118 38.12 93.2438 38.396 93.1238 38.708C93.0158 39.02 92.9618 39.344 92.9618 39.68ZM101.788 39.68C101.788 38.996 101.908 38.378 102.148 37.826C102.4 37.262 102.736 36.782 103.156 36.386C103.576 35.99 104.074 35.684 104.65 35.468C105.226 35.252 105.838 35.144 106.486 35.144C107.134 35.144 107.746 35.252 108.322 35.468C108.898 35.684 109.396 35.99 109.816 36.386C110.236 36.782 110.566 37.262 110.806 37.826C111.058 38.378 111.184 38.996 111.184 39.68C111.184 40.364 111.058 40.988 110.806 41.552C110.566 42.104 110.236 42.578 109.816 42.974C109.396 43.37 108.898 43.676 108.322 43.892C107.746 44.108 107.134 44.216 106.486 44.216C105.838 44.216 105.226 44.108 104.65 43.892C104.074 43.676 103.576 43.37 103.156 42.974C102.736 42.578 102.4 42.104 102.148 41.552C101.908 40.988 101.788 40.364 101.788 39.68ZM103.948 39.68C103.948 40.016 104.002 40.34 104.11 40.652C104.23 40.964 104.398 41.24 104.614 41.48C104.842 41.72 105.112 41.912 105.424 42.056C105.736 42.2 106.09 42.272 106.486 42.272C106.882 42.272 107.236 42.2 107.548 42.056C107.86 41.912 108.124 41.72 108.34 41.48C108.568 41.24 108.736 40.964 108.844 40.652C108.964 40.34 109.024 40.016 109.024 39.68C109.024 39.344 108.964 39.02 108.844 38.708C108.736 38.396 108.568 38.12 108.34 37.88C108.124 37.64 107.86 37.448 107.548 37.304C107.236 37.16 106.882 37.088 106.486 37.088C106.09 37.088 105.736 37.16 105.424 37.304C105.112 37.448 104.842 37.64 104.614 37.88C104.398 38.12 104.23 38.396 104.11 38.708C104.002 39.02 103.948 39.344 103.948 39.68ZM122.098 35.36V43.226C122.098 44.006 122.002 44.708 121.81 45.332C121.618 45.968 121.318 46.502 120.91 46.934C120.514 47.378 120.01 47.72 119.398 47.96C118.786 48.2 118.06 48.32 117.22 48.32C116.416 48.32 115.654 48.218 114.934 48.014C114.214 47.81 113.548 47.438 112.936 46.898L114.232 45.134C114.664 45.53 115.114 45.836 115.582 46.052C116.05 46.268 116.59 46.376 117.202 46.376C117.718 46.376 118.15 46.304 118.498 46.16C118.858 46.016 119.14 45.818 119.344 45.566C119.56 45.314 119.71 45.008 119.794 44.648C119.89 44.3 119.938 43.91 119.938 43.478V42.848H119.902C119.59 43.268 119.176 43.586 118.66 43.802C118.144 44.006 117.616 44.108 117.076 44.108C116.428 44.108 115.84 43.994 115.312 43.766C114.784 43.526 114.328 43.208 113.944 42.812C113.572 42.416 113.284 41.948 113.08 41.408C112.876 40.868 112.774 40.292 112.774 39.68C112.774 39.044 112.87 38.45 113.062 37.898C113.254 37.346 113.536 36.866 113.908 36.458C114.28 36.05 114.724 35.732 115.24 35.504C115.768 35.264 116.368 35.144 117.04 35.144C117.652 35.144 118.222 35.264 118.75 35.504C119.278 35.744 119.698 36.128 120.01 36.656H120.046V35.36H122.098ZM117.49 37.088C117.106 37.088 116.758 37.154 116.446 37.286C116.134 37.406 115.864 37.58 115.636 37.808C115.42 38.024 115.246 38.294 115.114 38.618C114.994 38.93 114.934 39.278 114.934 39.662C114.934 40.01 114.994 40.334 115.114 40.634C115.246 40.934 115.426 41.198 115.654 41.426C115.882 41.654 116.152 41.834 116.464 41.966C116.776 42.098 117.112 42.164 117.472 42.164C117.868 42.164 118.222 42.098 118.534 41.966C118.858 41.834 119.128 41.66 119.344 41.444C119.572 41.216 119.746 40.946 119.866 40.634C119.986 40.322 120.046 39.986 120.046 39.626C120.046 38.87 119.818 38.258 119.362 37.79C118.906 37.322 118.282 37.088 117.49 37.088ZM124.58 30.392H126.74V44H124.58V30.392ZM130.948 40.436C131.02 41.084 131.272 41.588 131.704 41.948C132.136 42.308 132.658 42.488 133.27 42.488C133.81 42.488 134.26 42.38 134.62 42.164C134.992 41.936 135.316 41.654 135.592 41.318L137.14 42.488C136.636 43.112 136.072 43.556 135.448 43.82C134.824 44.084 134.17 44.216 133.486 44.216C132.838 44.216 132.226 44.108 131.65 43.892C131.074 43.676 130.576 43.37 130.156 42.974C129.736 42.578 129.4 42.104 129.148 41.552C128.908 40.988 128.788 40.364 128.788 39.68C128.788 38.996 128.908 38.378 129.148 37.826C129.4 37.262 129.736 36.782 130.156 36.386C130.576 35.99 131.074 35.684 131.65 35.468C132.226 35.252 132.838 35.144 133.486 35.144C134.086 35.144 134.632 35.252 135.124 35.468C135.628 35.672 136.054 35.972 136.402 36.368C136.762 36.764 137.038 37.256 137.23 37.844C137.434 38.42 137.536 39.086 137.536 39.842V40.436H130.948ZM135.376 38.816C135.364 38.18 135.166 37.682 134.782 37.322C134.398 36.95 133.864 36.764 133.18 36.764C132.532 36.764 132.016 36.95 131.632 37.322C131.26 37.694 131.032 38.192 130.948 38.816H135.376ZM145.08 31.256H149.364C149.976 31.256 150.564 31.316 151.128 31.436C151.704 31.556 152.208 31.76 152.64 32.048C153.072 32.324 153.414 32.702 153.666 33.182C153.93 33.65 154.062 34.238 154.062 34.946C154.062 35.75 153.924 36.398 153.648 36.89C153.372 37.382 153 37.766 152.532 38.042C152.064 38.306 151.518 38.486 150.894 38.582C150.282 38.678 149.64 38.726 148.968 38.726H147.348V44H145.08V31.256ZM148.716 36.782C149.04 36.782 149.376 36.77 149.724 36.746C150.072 36.722 150.39 36.65 150.678 36.53C150.978 36.41 151.218 36.23 151.398 35.99C151.59 35.75 151.686 35.414 151.686 34.982C151.686 34.586 151.602 34.274 151.434 34.046C151.266 33.806 151.05 33.626 150.786 33.506C150.522 33.374 150.228 33.29 149.904 33.254C149.58 33.218 149.268 33.2 148.968 33.2H147.348V36.782H148.716ZM155.922 30.392H158.082V44H155.922V30.392ZM165.962 42.812H165.908C165.596 43.304 165.2 43.664 164.72 43.892C164.24 44.108 163.712 44.216 163.136 44.216C162.74 44.216 162.35 44.162 161.966 44.054C161.594 43.946 161.258 43.784 160.958 43.568C160.67 43.352 160.436 43.082 160.256 42.758C160.076 42.434 159.986 42.056 159.986 41.624C159.986 41.156 160.07 40.76 160.238 40.436C160.406 40.1 160.628 39.824 160.904 39.608C161.192 39.38 161.522 39.2 161.894 39.068C162.266 38.936 162.65 38.84 163.046 38.78C163.454 38.708 163.862 38.666 164.27 38.654C164.678 38.63 165.062 38.618 165.422 38.618H165.962V38.384C165.962 37.844 165.776 37.442 165.404 37.178C165.032 36.902 164.558 36.764 163.982 36.764C163.526 36.764 163.1 36.848 162.704 37.016C162.308 37.172 161.966 37.388 161.678 37.664L160.544 36.53C161.024 36.038 161.582 35.684 162.218 35.468C162.866 35.252 163.532 35.144 164.216 35.144C164.828 35.144 165.344 35.216 165.764 35.36C166.184 35.492 166.532 35.666 166.808 35.882C167.084 36.098 167.294 36.35 167.438 36.638C167.594 36.914 167.702 37.196 167.762 37.484C167.834 37.772 167.876 38.054 167.888 38.33C167.9 38.594 167.906 38.828 167.906 39.032V44H165.962V42.812ZM165.836 40.13H165.386C165.086 40.13 164.75 40.142 164.378 40.166C164.006 40.19 163.652 40.25 163.316 40.346C162.992 40.43 162.716 40.562 162.488 40.742C162.26 40.91 162.146 41.15 162.146 41.462C162.146 41.666 162.188 41.84 162.272 41.984C162.368 42.116 162.488 42.23 162.632 42.326C162.776 42.422 162.938 42.494 163.118 42.542C163.298 42.578 163.478 42.596 163.658 42.596C164.402 42.596 164.948 42.422 165.296 42.074C165.656 41.714 165.836 41.228 165.836 40.616V40.13ZM169.06 35.36H171.436L173.848 41.354H173.884L176.044 35.36H178.294L174.208 45.854C174.052 46.262 173.878 46.616 173.686 46.916C173.506 47.228 173.29 47.486 173.038 47.69C172.786 47.906 172.486 48.062 172.138 48.158C171.802 48.266 171.394 48.32 170.914 48.32C170.35 48.32 169.798 48.248 169.258 48.104L169.528 46.16C169.696 46.22 169.87 46.268 170.05 46.304C170.242 46.352 170.434 46.376 170.626 46.376C170.89 46.376 171.112 46.352 171.292 46.304C171.472 46.256 171.622 46.178 171.742 46.07C171.874 45.974 171.982 45.842 172.066 45.674C172.15 45.518 172.24 45.326 172.336 45.098L172.75 44.072L169.06 35.36Z" fill="white"/>
</svg>
